<?xml version="1.0" encoding="utf-8"?>
<!-- Generator: Adobe Illustrator 16.0.0, SVG Export Plug-In . SVG Version: 6.00 Build 0)  -->
<!DOCTYPE svg PUBLIC "-//W3C//DTD SVG 1.0//EN" "http://www.w3.org/TR/2001/REC-SVG-20010904/DTD/svg10.dtd">
<svg version="1.0" id="Layer_1" xmlns="http://www.w3.org/2000/svg" xmlns:xlink="http://www.w3.org/1999/xlink" x="0px" y="0px"
	 width="251.625px" height="115.432px" viewBox="0 0 251.625 115.432" enable-background="new 0 0 251.625 115.432"
	 xml:space="preserve">
<circle fill="#C9A50E" cx="71.657" cy="42.331" r="19.522"/>
<circle fill="#8AB429" cx="104.99" cy="42.331" r="19.522"/>
<circle fill="#4CC443" cx="138.324" cy="42.331" r="19.522"/>
<circle fill="#0DD35E" cx="171.657" cy="42.331" r="19.522"/>
<g>
	<path fill="#4D4D4D" d="M42.631,67.223c0-1.193,0.943-2.136,2.137-2.136h0.471c0.916,0,1.553,0.472,1.941,1.11l5.16,8.405
		l5.188-8.433c0.443-0.721,1.055-1.082,1.914-1.082h0.471c1.193,0,2.137,0.943,2.137,2.136v15.423c0,1.193-0.943,2.136-2.137,2.136
		c-1.164,0-2.107-0.971-2.107-2.136v-9.681l-3.744,5.77c-0.445,0.666-1,1.082-1.775,1.082c-0.777,0-1.332-0.416-1.775-1.082
		l-3.689-5.687v9.654c0,1.165-0.943,2.081-2.109,2.081c-1.164,0-2.08-0.916-2.08-2.081V67.223z"/>
	<path fill="#4D4D4D" d="M66.404,76.294v-9.126c0-1.193,0.943-2.136,2.137-2.136c1.191,0,2.135,0.943,2.135,2.136v9.016
		c0,3.163,1.582,4.799,4.189,4.799s4.189-1.582,4.189-4.661v-9.154c0-1.193,0.941-2.136,2.135-2.136s2.137,0.943,2.137,2.136v8.988
		c0,5.881-3.301,8.766-8.518,8.766C69.594,84.921,66.404,82.009,66.404,76.294z"/>
	<path fill="#4D4D4D" d="M87.682,67.223c0-1.193,0.943-2.136,2.135-2.136h0.445c1.025,0,1.637,0.5,2.219,1.249l8.238,10.818V67.14
		c0-1.165,0.943-2.108,2.109-2.108c1.164,0,2.107,0.943,2.107,2.108v15.452c0,1.193-0.943,2.136-2.137,2.136h-0.139
		c-1.025,0-1.637-0.499-2.219-1.248l-8.543-11.208v10.403c0,1.165-0.943,2.108-2.109,2.108c-1.164,0-2.107-0.943-2.107-2.108V67.223
		z"/>
	<path fill="#4D4D4D" d="M109.789,67.167c0-1.193,0.943-2.136,2.137-2.136s2.137,0.943,2.137,2.136v15.479
		c0,1.193-0.943,2.136-2.137,2.136s-2.137-0.943-2.137-2.136V67.167z"/>
	<path fill="#4D4D4D" d="M127.238,67.334c0-1.193,0.943-2.136,2.137-2.136h5.436c6.104,0,10.32,4.189,10.32,9.654v0.056
		c0,5.465-4.217,9.709-10.32,9.709h-5.436c-1.193,0-2.137-0.943-2.137-2.136V67.334z M134.811,80.76
		c3.496,0,5.854-2.358,5.854-5.798v-0.055c0-3.44-2.357-5.854-5.854-5.854h-3.301V80.76H134.811z"/>
	<path fill="#4D4D4D" d="M147.018,81.87l6.768-15.285c0.473-1.054,1.332-1.692,2.498-1.692h0.248c1.166,0,1.998,0.638,2.471,1.692
		l6.768,15.285c0.139,0.305,0.223,0.583,0.223,0.86c0,1.137-0.889,2.053-2.025,2.053c-0.998,0-1.664-0.583-2.053-1.47l-1.305-3.052
		h-8.543l-1.359,3.19c-0.361,0.832-1.082,1.332-1.971,1.332c-1.109,0-1.969-0.888-1.969-1.998
		C146.768,82.48,146.879,82.175,147.018,81.87z M159.029,76.488l-2.691-6.408l-2.691,6.408H159.029z"/>
	<path fill="#4D4D4D" d="M169.543,67.167c0-1.193,0.943-2.136,2.135-2.136c1.193,0,2.137,0.943,2.137,2.136v15.479
		c0,1.193-0.943,2.136-2.137,2.136c-1.191,0-2.135-0.943-2.135-2.136V67.167z"/>
	<path fill="#4D4D4D" d="M178.668,67.167c0-1.193,0.943-2.136,2.137-2.136s2.137,0.943,2.137,2.136v13.565h7.906
		c1.082,0,1.941,0.86,1.941,1.942s-0.859,1.942-1.941,1.942h-10.043c-1.193,0-2.137-0.943-2.137-2.136V67.167z"/>
	<path fill="#4D4D4D" d="M197.588,77.126l-6.27-8.517c-0.305-0.416-0.527-0.916-0.527-1.525c0-1.138,0.943-2.053,2.137-2.053
		c0.971,0,1.58,0.527,2.107,1.304l4.717,6.796l4.799-6.852c0.527-0.777,1.164-1.276,2.053-1.276c1.303,0,2.08,0.915,2.08,2.081
		c0,0.583-0.277,1.109-0.555,1.498l-6.27,8.461v5.604c0,1.193-0.943,2.136-2.137,2.136c-1.191,0-2.135-0.943-2.135-2.136V77.126z"/>
</g>
<path fill="#4D4D4D" d="M137.163,24.51c-0.308-3.01-0.797-5.354-1.573-6.275c-3.198-3.788-25.61-4.065-28.157,0
	c-0.621,0.996-1.057,3.332-1.351,6.28c-0.944,0.111-1.681,0.907-1.681,1.882v3.688c0,0.82,0.518,1.511,1.244,1.781
	c-0.172,5.807-0.031,11.867,0.227,14.88c0,2.326,1.561,1.94,1.561,1.94h1.465v2.512c0,0.996,1.026,1.802,2.292,1.802
	c1.267,0,2.294-0.806,2.294-1.802v-2.512h17.041v2.512c0,0.996,1.025,1.802,2.294,1.802c1.265,0,2.289-0.806,2.289-1.802v-2.512
	h0.482c0,0,1.839,0.252,1.956-0.843c0-3.005,0.19-9.666,0.035-15.953c0.771-0.241,1.333-0.952,1.333-1.806v-3.688
	C138.914,25.399,138.143,24.59,137.163,24.51z M112.907,18.776h17.208v2.603h-17.208V18.776z M113.153,45.721
	c-1.352,0-2.445-1.095-2.445-2.447c0-1.35,1.094-2.444,2.445-2.444c1.351,0,2.447,1.094,2.447,2.444
	C115.601,44.626,114.505,45.721,113.153,45.721z M130.025,45.721c-1.351,0-2.448-1.095-2.448-2.447c0-1.35,1.096-2.444,2.448-2.444
	c1.351,0,2.443,1.094,2.443,2.444C132.472,44.626,131.376,45.721,130.025,45.721z M133.134,35.015H109.89V22.823h23.244V35.015z"/>
<g>
	<path fill="#999999" d="M4.919,94.008l3.021,8.683H6.729l-0.876-2.579H2.52l-0.852,2.579H0.553l2.927-8.683H4.919z M4.187,95.015
		H4.175l-1.392,4.15h2.795L4.187,95.015z"/>
	<path fill="#999999" d="M13.188,101.719h3.91v0.972h-5.014v-8.683h1.104V101.719z"/>
	<path fill="#999999" d="M18.024,99.633c0-1.991,1.031-3.238,2.998-3.238c1.955,0,2.759,1.259,2.759,3.094
		c0,2.027-0.84,3.346-2.915,3.346C18.731,102.835,18.024,101.456,18.024,99.633z M22.642,99.561c0-1.703-0.6-2.267-1.667-2.267
		c-1.092,0-1.823,0.647-1.823,2.291c0,1.631,0.576,2.375,1.775,2.375C21.994,101.959,22.642,101.312,22.642,99.561z"/>
	<path fill="#999999" d="M24.961,99.633c0-1.991,1.031-3.238,2.998-3.238c1.955,0,2.759,1.259,2.759,3.094
		c0,2.027-0.84,3.346-2.915,3.346C25.668,102.835,24.961,101.456,24.961,99.633z M29.578,99.561c0-1.703-0.6-2.267-1.667-2.267
		c-1.092,0-1.823,0.647-1.823,2.291c0,1.631,0.576,2.375,1.775,2.375C28.931,101.959,29.578,101.312,29.578,99.561z"/>
	<path fill="#999999" d="M33.371,99.237l2.651-2.71h1.234l-2.135,2.219l2.291,3.946h-1.199l-1.895-3.178l-0.948,0.936v2.243H32.28
		v-9.055h1.091V99.237z"/>
	<path fill="#999999" d="M45.729,101.527c0,0.336,0.06,0.48,0.371,0.48c0.108,0,0.216-0.024,0.372-0.072l0.048,0.684
		c-0.24,0.12-0.552,0.192-0.852,0.192c-0.611,0-0.888-0.336-0.947-0.732c-0.479,0.48-1.115,0.756-1.979,0.756
		c-1.56,0-1.823-1.056-1.823-1.655c0-1.643,1.451-2.099,3.19-2.099c0.191,0,0.371,0.012,0.539,0.024v-0.6
		c0-0.78-0.216-1.259-1.223-1.259c-0.852,0-1.176,0.335-1.308,1.019l-0.96-0.18c0.192-1.151,0.936-1.691,2.363-1.691
		c1.523,0,2.207,0.587,2.207,2.123V101.527z M44.661,99.896c-0.167-0.024-0.396-0.036-0.623-0.036c-0.852,0-1.991,0.084-1.991,1.14
		c0,0.527,0.192,0.983,1.031,0.983c0.636,0,1.248-0.336,1.583-0.696V99.896z"/>
	<path fill="#999999" d="M50.985,102.427c-0.3,0.204-0.935,0.408-1.511,0.408c-1.151,0-1.739-0.528-1.739-1.763v-3.67h-0.947v-0.875
		h0.947v-1.787l1.092-0.168v1.955h1.703v0.875h-1.703v3.526c0,0.648,0.144,1.008,0.888,1.008c0.371,0,0.815-0.156,1.079-0.3
		L50.985,102.427z"/>
	<path fill="#999999" d="M58.103,102.427c-0.301,0.204-0.936,0.408-1.512,0.408c-1.151,0-1.739-0.528-1.739-1.763v-3.67h-0.947
		v-0.875h0.947v-1.787l1.092-0.168v1.955h1.703v0.875h-1.703v3.526c0,0.648,0.144,1.008,0.888,1.008c0.371,0,0.815-0.156,1.079-0.3
		L58.103,102.427z"/>
	<path fill="#999999" d="M64.341,102.691H63.25v-4.018c0-0.852-0.312-1.319-1.151-1.319c-0.708,0-1.476,0.456-1.8,0.744v4.593
		h-1.091v-9.055h1.079v3.586c0.6-0.468,1.308-0.828,2.171-0.828c1.308,0,1.883,0.719,1.883,2.111V102.691z"/>
	<path fill="#999999" d="M65.808,99.621c0-2.255,1.319-3.226,2.902-3.226c1.727,0,2.446,1.139,2.446,2.663
		c0,0.24-0.012,0.516-0.048,0.803h-4.149c0.048,1.571,0.743,2.063,1.727,2.063c0.876,0,1.283-0.396,1.451-1.091l0.96,0.216
		c-0.252,1.199-1.212,1.787-2.447,1.787C66.467,102.835,65.808,101.312,65.808,99.621z M70.029,98.997
		c0-1.104-0.42-1.715-1.392-1.715c-0.815,0-1.607,0.492-1.667,1.715H70.029z"/>
	<path fill="#999999" d="M83.946,102.691h-1.043v-7.496h-0.012l-2.627,7.496h-1.151l-2.579-7.508h-0.023v7.508h-1.02v-8.683h1.679
		l2.555,7.388h0.013l2.554-7.388h1.655V102.691z"/>
	<path fill="#999999" d="M85.691,99.633c0-1.991,1.031-3.238,2.998-3.238c1.955,0,2.759,1.259,2.759,3.094
		c0,2.027-0.84,3.346-2.915,3.346C86.398,102.835,85.691,101.456,85.691,99.633z M90.309,99.561c0-1.703-0.6-2.267-1.667-2.267
		c-1.092,0-1.823,0.647-1.823,2.291c0,1.631,0.576,2.375,1.775,2.375C89.661,101.959,90.309,101.312,90.309,99.561z"/>
	<path fill="#999999" d="M97.245,98.181l-0.983,0.216c-0.145-0.708-0.384-1.14-1.284-1.14c-0.899,0-1.187,0.396-1.187,0.864
		c0,0.636,0.503,0.815,1.367,0.995c1.127,0.24,2.194,0.468,2.194,1.847c0,1.175-0.911,1.871-2.41,1.871
		c-1.416,0-2.268-0.552-2.459-1.787l0.972-0.264c0.168,0.66,0.443,1.187,1.535,1.187c0.743,0,1.283-0.228,1.283-0.887
		c0-0.684-0.504-0.804-1.344-0.972c-1.007-0.204-2.219-0.42-2.219-1.859c0-1.248,1.032-1.859,2.279-1.859
		C96.453,96.395,97.053,97.09,97.245,98.181z"/>
	<path fill="#999999" d="M102.153,102.427c-0.301,0.204-0.936,0.408-1.512,0.408c-1.151,0-1.739-0.528-1.739-1.763v-3.67h-0.947
		v-0.875h0.947v-1.787l1.092-0.168v1.955h1.703v0.875h-1.703v3.526c0,0.648,0.144,1.008,0.888,1.008c0.371,0,0.815-0.156,1.079-0.3
		L102.153,102.427z"/>
	<path fill="#999999" d="M107.099,102.691h-1.092v-8.683h2.83c2.219,0,2.891,1.223,2.891,2.603c0,2.063-1.224,2.926-3.31,2.926
		h-1.319V102.691z M108.334,98.589c1.259,0,2.254-0.3,2.254-1.919c0-1.248-0.684-1.727-2.074-1.727h-1.415v3.646H108.334z"/>
	<path fill="#999999" d="M112.571,99.633c0-1.991,1.031-3.238,2.998-3.238c1.955,0,2.759,1.259,2.759,3.094
		c0,2.027-0.84,3.346-2.915,3.346C113.278,102.835,112.571,101.456,112.571,99.633z M117.188,99.561c0-1.703-0.6-2.267-1.667-2.267
		c-1.092,0-1.823,0.647-1.823,2.291c0,1.631,0.576,2.375,1.775,2.375C116.541,101.959,117.188,101.312,117.188,99.561z"/>
	<path fill="#999999" d="M119.891,96.526h0.947l0.06,0.708c0.564-0.504,1.26-0.839,2.135-0.839c1.296,0,2.255,0.803,2.255,3.07
		c0,2.411-1.187,3.37-2.566,3.37c-0.743,0-1.331-0.264-1.774-0.6v2.998h-1.056V96.526z M120.981,101.3
		c0.265,0.204,0.876,0.611,1.584,0.611c1.175,0,1.606-0.983,1.606-2.458c0-1.547-0.479-2.147-1.463-2.147
		c-0.684,0-1.367,0.42-1.728,0.78V101.3z"/>
	<path fill="#999999" d="M126.839,96.526h1.092v4.018c0,0.852,0.204,1.319,1.115,1.319c0.708,0,1.463-0.456,1.787-0.755v-4.582
		h1.091v6.165h-0.947l-0.071-0.708c-0.6,0.492-1.332,0.828-2.184,0.828c-1.307,0-1.883-0.72-1.883-2.099V96.526z"/>
	<path fill="#999999" d="M134.926,102.691h-1.091v-9.055h1.091V102.691z"/>
	<path fill="#999999" d="M141.333,101.527c0,0.336,0.06,0.48,0.371,0.48c0.108,0,0.216-0.024,0.372-0.072l0.048,0.684
		c-0.24,0.12-0.552,0.192-0.852,0.192c-0.611,0-0.888-0.336-0.947-0.732c-0.479,0.48-1.115,0.756-1.979,0.756
		c-1.56,0-1.823-1.056-1.823-1.655c0-1.643,1.451-2.099,3.19-2.099c0.191,0,0.371,0.012,0.539,0.024v-0.6
		c0-0.78-0.216-1.259-1.223-1.259c-0.852,0-1.176,0.335-1.308,1.019l-0.96-0.18c0.192-1.151,0.936-1.691,2.363-1.691
		c1.523,0,2.207,0.587,2.207,2.123V101.527z M140.265,99.896c-0.167-0.024-0.396-0.036-0.623-0.036c-0.852,0-1.991,0.084-1.991,1.14
		c0,0.527,0.192,0.983,1.031,0.983c0.636,0,1.248-0.336,1.583-0.696V99.896z"/>
	<path fill="#999999" d="M146.638,97.534c-0.768-0.108-1.68,0.204-2.184,0.672v4.485h-1.091v-6.165h0.911l0.084,0.887
		c0.54-0.731,1.188-1.019,2.051-1.019c0.072,0,0.156,0.012,0.229,0.012V97.534z"/>
	<path fill="#999999" d="M151.103,96.143c0,1.055,0.995,1.355,2.074,1.679c1.271,0.372,2.65,0.779,2.65,2.458
		c0,1.835-1.463,2.555-3.07,2.555c-1.811,0-2.938-0.72-3.166-2.507l1.056-0.156c0.204,0.923,0.636,1.727,2.123,1.727
		c0.936,0,1.931-0.312,1.931-1.463c0-1.079-0.972-1.367-2.039-1.667c-1.283-0.36-2.687-0.731-2.687-2.519
		c0-1.487,1.247-2.399,2.927-2.399c1.523,0,2.675,0.588,2.854,2.447l-1.031,0.12c-0.133-0.828-0.468-1.631-1.812-1.631
		C151.582,94.787,151.103,95.375,151.103,96.143z"/>
	<path fill="#999999" d="M158.578,102.691h-1.104v-8.683h5.073v0.959h-3.97v3.01h3.67v0.959h-3.67V102.691z"/>
	<path fill="#999999" d="M172.493,102.691h-1.043v-7.496h-0.012l-2.627,7.496h-1.151l-2.579-7.508h-0.023v7.508h-1.02v-8.683h1.679
		l2.555,7.388h0.013l2.554-7.388h1.655V102.691z"/>
	<path fill="#999999" d="M176.433,102.691v-7.724h-2.626v-0.959h6.332v0.959h-2.603v7.724H176.433z"/>
	<path fill="#999999" d="M184.124,94.008l3.021,8.683h-1.211l-0.876-2.579h-3.334l-0.852,2.579h-1.115l2.927-8.683H184.124z
		 M183.392,95.015h-0.012l-1.392,4.15h2.795L183.392,95.015z"/>
	<path fill="#999999" d="M191.29,102.691v-8.683h2.986c2.051,0,2.614,0.936,2.614,2.123c0,1.224-0.779,1.823-1.727,2.039v0.024
		c1.415,0.18,2.075,0.948,2.075,2.147c0,1.775-1.332,2.351-3.215,2.351H191.29z M193.641,97.81c0.947,0,2.135-0.264,2.135-1.523
		c0-1.08-0.623-1.367-1.811-1.367h-1.583v2.89H193.641z M193.868,101.768c1.26,0,2.207-0.192,2.207-1.5
		c0-1.151-0.863-1.547-1.967-1.547h-1.727v3.046H193.868z"/>
	<path fill="#999999" d="M198.622,96.526h1.092v4.018c0,0.852,0.204,1.319,1.115,1.319c0.708,0,1.463-0.456,1.787-0.755v-4.582
		h1.091v6.165h-0.947l-0.071-0.708c-0.6,0.492-1.332,0.828-2.184,0.828c-1.307,0-1.883-0.72-1.883-2.099V96.526z"/>
	<path fill="#999999" d="M209.876,98.181l-0.983,0.216c-0.145-0.708-0.384-1.14-1.284-1.14c-0.899,0-1.187,0.396-1.187,0.864
		c0,0.636,0.503,0.815,1.367,0.995c1.127,0.24,2.194,0.468,2.194,1.847c0,1.175-0.911,1.871-2.41,1.871
		c-1.416,0-2.268-0.552-2.459-1.787l0.972-0.264c0.168,0.66,0.443,1.187,1.535,1.187c0.743,0,1.283-0.228,1.283-0.887
		c0-0.684-0.504-0.804-1.344-0.972c-1.007-0.204-2.219-0.42-2.219-1.859c0-1.248,1.032-1.859,2.279-1.859
		C209.084,96.395,209.684,97.09,209.876,98.181z"/>
	<path fill="#999999" d="M220.445,102.691h-1.199l-1.991-3.61h-1.954v3.61h-1.092v-8.683h2.975c2.158,0,2.807,1.175,2.807,2.363
		c0,1.307-0.672,2.075-1.68,2.422L220.445,102.691z M216.92,98.157c1.139,0,1.931-0.384,1.931-1.727
		c0-1.175-0.792-1.487-2.039-1.487h-1.511v3.214H216.92z"/>
	<path fill="#999999" d="M221.074,99.633c0-1.991,1.031-3.238,2.998-3.238c1.955,0,2.759,1.259,2.759,3.094
		c0,2.027-0.84,3.346-2.915,3.346C221.781,102.835,221.074,101.456,221.074,99.633z M225.691,99.561c0-1.703-0.6-2.267-1.667-2.267
		c-1.092,0-1.823,0.647-1.823,2.291c0,1.631,0.576,2.375,1.775,2.375C225.044,101.959,225.691,101.312,225.691,99.561z"/>
	<path fill="#999999" d="M228.369,96.526h1.092v4.018c0,0.852,0.204,1.319,1.115,1.319c0.708,0,1.463-0.456,1.787-0.755v-4.582
		h1.091v6.165h-0.947l-0.071-0.708c-0.601,0.492-1.332,0.828-2.184,0.828c-1.307,0-1.883-0.72-1.883-2.099V96.526z"/>
	<path fill="#999999" d="M238.808,102.427c-0.301,0.204-0.936,0.408-1.512,0.408c-1.151,0-1.739-0.528-1.739-1.763v-3.67h-0.947
		v-0.875h0.947v-1.787l1.092-0.168v1.955h1.703v0.875h-1.703v3.526c0,0.648,0.144,1.008,0.888,1.008c0.371,0,0.815-0.156,1.079-0.3
		L238.808,102.427z"/>
	<path fill="#999999" d="M239.41,99.621c0-2.255,1.319-3.226,2.902-3.226c1.727,0,2.446,1.139,2.446,2.663
		c0,0.24-0.012,0.516-0.048,0.803h-4.149c0.048,1.571,0.743,2.063,1.727,2.063c0.876,0,1.283-0.396,1.451-1.091l0.96,0.216
		c-0.252,1.199-1.212,1.787-2.447,1.787C240.069,102.835,239.41,101.312,239.41,99.621z M243.632,98.997
		c0-1.104-0.42-1.715-1.392-1.715c-0.815,0-1.607,0.492-1.667,1.715H243.632z"/>
	<path fill="#999999" d="M250.579,98.181l-0.983,0.216c-0.145-0.708-0.384-1.14-1.284-1.14c-0.899,0-1.187,0.396-1.187,0.864
		c0,0.636,0.503,0.815,1.367,0.995c1.127,0.24,2.194,0.468,2.194,1.847c0,1.175-0.911,1.871-2.41,1.871
		c-1.416,0-2.268-0.552-2.459-1.787l0.972-0.264c0.168,0.66,0.443,1.187,1.535,1.187c0.743,0,1.283-0.228,1.283-0.887
		c0-0.684-0.504-0.804-1.344-0.972c-1.007-0.204-2.219-0.42-2.219-1.859c0-1.248,1.032-1.859,2.279-1.859
		C249.787,96.395,250.387,97.09,250.579,98.181z"/>
</g>
</svg>
