<?xml version="1.0" encoding="utf-8"?>
<!-- Generator: Adobe Illustrator 16.0.0, SVG Export Plug-In . SVG Version: 6.00 Build 0)  -->
<!DOCTYPE svg PUBLIC "-//W3C//DTD SVG 1.0//EN" "http://www.w3.org/TR/2001/REC-SVG-20010904/DTD/svg10.dtd">
<svg version="1.0" id="Layer_1" xmlns="http://www.w3.org/2000/svg" xmlns:xlink="http://www.w3.org/1999/xlink" x="0px" y="0px"
	 width="142.75px" height="72.5px" viewBox="0 0 142.75 72.5" enable-background="new 0 0 142.75 72.5" xml:space="preserve">
<circle fill="#59CE44" cx="88.449" cy="28.398" r="19.522"/>
<circle fill="#F1C40F" cx="21.782" cy="28.398" r="19.522"/>
<circle fill="#A5C929" cx="55.115" cy="28.398" r="19.522"/>
<rect x="59" y="4.5" opacity="0.8" fill="#CCCCCC" enable-background="new    " width="25" height="17"/>
<circle fill="#FFFFFF" cx="62.894" cy="28.398" r="4.348"/>
<circle fill="#FFFFFF" cx="80.5" cy="28.398" r="4.348"/>
<circle fill="#0DD35E" cx="121.782" cy="28.398" r="19.522"/>
<g>
	<path fill="#4D4D4D" d="M24.142,55.195c0-0.741,0.587-1.328,1.329-1.328h0.293c0.569,0,0.965,0.293,1.207,0.689l3.209,5.229
		l3.227-5.245c0.276-0.449,0.656-0.673,1.191-0.673h0.293c0.742,0,1.328,0.586,1.328,1.328v9.594c0,0.742-0.586,1.329-1.328,1.329
		c-0.725,0-1.312-0.604-1.312-1.329v-6.021l-2.329,3.59c-0.276,0.414-0.621,0.673-1.104,0.673s-0.829-0.259-1.104-0.673
		l-2.295-3.537v6.004c0,0.725-0.587,1.294-1.312,1.294s-1.294-0.569-1.294-1.294L24.142,55.195L24.142,55.195z"/>
	<path fill="#4D4D4D" d="M38.928,60.837v-5.676c0-0.742,0.587-1.329,1.329-1.329c0.741,0,1.328,0.586,1.328,1.329v5.606
		c0,1.967,0.983,2.985,2.605,2.985s2.606-0.983,2.606-2.899V55.16c0-0.742,0.585-1.329,1.327-1.329s1.329,0.586,1.329,1.329v5.59
		c0,3.658-2.053,5.452-5.298,5.452C40.912,66.204,38.928,64.393,38.928,60.837z"/>
	<path fill="#4D4D4D" d="M52.162,55.195c0-0.741,0.587-1.328,1.328-1.328h0.276c0.638,0,1.019,0.311,1.38,0.775l5.125,6.729v-6.229
		c0-0.725,0.586-1.311,1.312-1.311c0.724,0,1.311,0.586,1.311,1.311v9.611c0,0.742-0.587,1.329-1.329,1.329h-0.086
		c-0.638,0-1.018-0.312-1.38-0.776l-5.313-6.971v6.471c0,0.726-0.587,1.312-1.312,1.312c-0.724,0-1.311-0.586-1.311-1.312
		L52.162,55.195L52.162,55.195z"/>
	<path fill="#4D4D4D" d="M65.912,55.161c0-0.742,0.587-1.329,1.329-1.329c0.742,0,1.329,0.586,1.329,1.329v9.627
		c0,0.742-0.587,1.329-1.329,1.329c-0.742,0-1.329-0.586-1.329-1.329V55.161z"/>
	<path fill="#4D4D4D" d="M76.766,55.266c0-0.742,0.588-1.33,1.33-1.33h3.381c3.795,0,6.418,2.605,6.418,6.004v0.035
		c0,3.399-2.623,6.039-6.418,6.039h-3.381c-0.742,0-1.33-0.586-1.33-1.328V55.266z M81.477,63.615c2.174,0,3.641-1.467,3.641-3.606
		v-0.034c0-2.14-1.467-3.641-3.641-3.641h-2.055v7.281H81.477z"/>
	<path fill="#4D4D4D" d="M89.068,64.307l4.209-9.508c0.293-0.656,0.828-1.053,1.554-1.053h0.153c0.727,0,1.244,0.396,1.537,1.053
		l4.209,9.508c0.086,0.189,0.14,0.361,0.14,0.534c0,0.707-0.554,1.276-1.261,1.276c-0.621,0-1.034-0.362-1.276-0.914l-0.812-1.898
		h-5.313l-0.847,1.984c-0.225,0.518-0.672,0.828-1.225,0.828c-0.689,0-1.226-0.553-1.226-1.242
		C88.912,64.686,88.98,64.496,89.068,64.307z M96.539,60.958l-1.674-3.985l-1.674,3.985H96.539z"/>
	<path fill="#4D4D4D" d="M103.078,55.161c0-0.742,0.587-1.329,1.328-1.329c0.742,0,1.328,0.586,1.328,1.329v9.627
		c0,0.742-0.586,1.329-1.328,1.329c-0.741,0-1.328-0.586-1.328-1.329V55.161z"/>
	<path fill="#4D4D4D" d="M108.754,55.161c0-0.742,0.587-1.329,1.329-1.329s1.329,0.586,1.329,1.329v8.437h4.917
		c0.673,0,1.208,0.535,1.208,1.209c0,0.672-0.535,1.207-1.208,1.207h-6.246c-0.742,0-1.329-0.586-1.329-1.328V55.161z"/>
	<path fill="#4D4D4D" d="M120.521,61.355l-3.899-5.297c-0.188-0.26-0.328-0.569-0.328-0.949c0-0.709,0.587-1.277,1.329-1.277
		c0.604,0,0.982,0.328,1.311,0.811l2.935,4.228l2.985-4.263c0.328-0.482,0.724-0.793,1.275-0.793c0.811,0,1.294,0.569,1.294,1.295
		c0,0.361-0.173,0.689-0.345,0.932l-3.898,5.262v3.485c0,0.741-0.588,1.329-1.33,1.329c-0.74,0-1.328-0.586-1.328-1.329V61.355
		L120.521,61.355z"/>
</g>
<path fill="#4D4D4D" d="M87.288,10.578c-0.308-3.01-0.797-5.354-1.573-6.275c-3.197-3.788-25.61-4.065-28.157,0
	c-0.621,0.996-1.057,3.332-1.351,6.28c-0.944,0.111-1.681,0.907-1.681,1.882v3.688c0,0.82,0.518,1.511,1.244,1.781
	c-0.172,5.807-0.031,11.867,0.227,14.88c0,2.326,1.561,1.94,1.561,1.94h1.465v2.512c0,0.996,1.026,1.803,2.292,1.803
	c1.267,0,2.294-0.807,2.294-1.803v-2.512H80.65v2.512c0,0.996,1.024,1.803,2.293,1.803c1.266,0,2.289-0.807,2.289-1.803v-2.512
	h0.482c0,0,1.84,0.252,1.956-0.843c0-3.005,0.19-9.666,0.035-15.953c0.771-0.241,1.333-0.952,1.333-1.806v-3.688
	C89.039,11.467,88.268,10.658,87.288,10.578z M63.032,4.844H80.24v2.604H63.032V4.844z M63.278,31.789
	c-1.352,0-2.445-1.095-2.445-2.447c0-1.35,1.094-2.444,2.445-2.444s2.447,1.094,2.447,2.444
	C65.726,30.694,64.63,31.789,63.278,31.789z M80.15,31.789c-1.352,0-2.448-1.095-2.448-2.447c0-1.35,1.096-2.444,2.448-2.444
	c1.351,0,2.442,1.094,2.442,2.444C82.598,30.694,81.501,31.789,80.15,31.789z M83.259,21.083H60.015V8.891h23.244V21.083z"/>
<line fill="none" x1="184.875" y1="-50.25" x2="-56.125" y2="-50.25"/>
</svg>
